# xmcd
#
# Track frame offsets:
#	150
#	14037
#	27762
#	43507
#	57030
#	74767
#	93932
#
# Disc length: 1525 seconds
#
# Revision: 1
# Processed by: cddbd v1.5.1PL0 Copyright (c) Steve Scherf et al.
# Submitted via: CDex 1.50Beta5
#
DISCID=5805f307
DTITLE=舟木一夫 - 決定盤
DYEAR=1900
DGENRE=Pop
TTITLE0=高校三年生
TTITLE1=修学旅行
TTITLE2=学園広場
TTITLE3=銭形平次
TTITLE4=君たちがいて僕がいた
TTITLE5=高原のお嬢さん
TTITLE6=人生半分
EXTD=
EXTT0=
EXTT1=
EXTT2=
EXTT3=
EXTT4=
EXTT5=
EXTT6=
PLAYORDER=
